<svg
    width="65"
    height="65"
    viewBox="0 0 65 65"
    fill="none"
    xmlns="http://www.w3.org/2000/svg"
>
    <circle cx="32.5" cy="32.5" r="32.5" fill="url(#paint0_linear-ada)"/>
    <path
        d="M32.3912 16.2223C32.5853 16.2324 32.7707 16.1938 32.9356 16.1173C33.3003 15.9484 33.5636 15.5951 33.5936 15.176C33.6376 14.5675 33.1454 14.0442 32.5222 14.0016C31.899 13.9695 31.3633 14.4286 31.3198 15.0372C31.3098 15.2233 31.3463 15.4006 31.419 15.5587C31.5887 15.9274 31.9551 16.1925 32.3912 16.2223Z"
        fill="white"
    />
    <path
        d="M43.0067 16.3721C42.9258 16.492 42.8214 16.5868 42.7034 16.6538C42.5607 16.7349 42.3983 16.7756 42.2347 16.7714C42.176 16.7699 42.1172 16.7626 42.0589 16.7494C42.0049 16.7372 41.9518 16.7197 41.8996 16.697L41.8722 16.6844L41.8317 16.6641C41.8113 16.6529 41.7913 16.6412 41.7712 16.6284C41.3665 16.3614 41.2464 15.8169 41.5088 15.4111C41.5606 15.3365 41.622 15.2718 41.6903 15.2178C41.7116 15.2012 41.7334 15.1855 41.7556 15.1708C41.7873 15.1502 41.82 15.1315 41.8535 15.1149C41.8753 15.1044 41.897 15.0947 41.9192 15.0859C41.944 15.076 41.9693 15.0672 41.9945 15.0596C42.0728 15.0363 42.1542 15.0235 42.236 15.0216C42.4097 15.0181 42.5863 15.0641 42.7443 15.1655C43.1595 15.4325 43.28 15.9663 43.0067 16.3721Z"
        fill="white"
    />
    <path
        d="M23.0651 16.7134C23.5025 16.4998 23.6774 15.966 23.4585 15.539C23.2401 15.1117 22.6935 14.941 22.2561 15.1546C21.8187 15.368 21.6438 15.8913 21.8623 16.3183C21.9519 16.4973 22.0942 16.6334 22.2622 16.7166C22.3375 16.754 22.418 16.7807 22.5016 16.7956C22.539 16.8023 22.5773 16.8067 22.6156 16.8086C22.6426 16.8101 22.6695 16.8101 22.6965 16.809C22.7418 16.8071 22.7875 16.8019 22.8327 16.793C22.9115 16.7775 22.9894 16.7512 23.0651 16.7134Z"
        fill="white"
    />
    <path
        d="M25.8425 35.2069C24.3228 35.1214 23.153 33.8508 23.2405 32.3667C23.3167 30.936 24.5304 29.8147 25.9952 29.8147C27.5258 29.8042 28.7613 31.0106 28.7613 32.5056C28.7722 34.0003 27.5371 35.2069 26.0061 35.2069H25.8425Z"
        fill="white"
    />
    <path
        d="M12.0009 32.4946C12.0227 32.0142 12.4492 31.6406 12.9413 31.6725C13.4331 31.7046 13.8156 32.1102 13.783 32.5909C13.7504 33.0713 13.3348 33.4449 12.843 33.4128C12.3508 33.3916 11.9791 32.975 12.0009 32.4946Z"
        fill="white"
    />
    <path
        d="M26.4761 19.6818C26.8147 20.3437 26.5414 21.1551 25.8638 21.4862C25.1858 21.8172 24.355 21.5502 24.016 20.8883C23.677 20.2262 23.9507 19.4148 24.6283 19.0837C25.3063 18.7529 26.1371 19.0197 26.4761 19.6818Z"
        fill="white"
    />
    <path
        d="M16.4394 24.7641C16.9642 25.0952 17.6636 24.9563 18.0135 24.4438C18.3525 23.9314 18.2106 23.2479 17.6858 22.9064C17.1609 22.5753 16.4611 22.7142 16.1113 23.2267C15.9742 23.4273 15.9146 23.6556 15.9237 23.8791C15.9381 24.2268 16.12 24.5627 16.4394 24.7641Z"
        fill="white"
    />
    <path
        d="M16.6579 32.4625C16.7018 31.7149 17.3468 31.149 18.1123 31.1919C18.8773 31.2345 19.457 31.8752 19.413 32.6119C19.3695 33.3592 18.7241 33.9251 17.9591 33.8825C17.4795 33.8558 17.073 33.5985 16.8472 33.2263C16.7123 33.0045 16.6418 32.7417 16.6579 32.4625Z"
        fill="white"
    />
    <path
        d="M16.593 40.2357C16.0355 40.5134 15.8062 41.1753 16.0904 41.7305C16.3745 42.2751 17.0526 42.4993 17.6209 42.2218C17.6832 42.1907 17.7415 42.1548 17.7954 42.1149L17.8324 42.0859L17.8568 42.0661L17.8764 42.0485L17.9134 42.014C17.9595 41.9687 18.0017 41.9199 18.0387 41.8683C18.2711 41.5446 18.3203 41.1104 18.124 40.7268C17.8394 40.1823 17.1509 39.9582 16.593 40.2357Z"
        fill="white"
    />
    <path
        d="M24.1914 27.9461C23.7101 28.6829 22.7044 28.8856 21.9502 28.4052C21.1956 27.9248 20.988 26.9424 21.4797 26.2164C21.9611 25.4796 22.9668 25.2769 23.721 25.7573C24.4756 26.2272 24.6832 27.2094 24.1914 27.9461Z"
        fill="white"
    />
    <path
        d="M38.9508 21.3797C39.5849 21.7855 40.4483 21.6145 40.8639 20.9952C41.2795 20.376 41.1045 19.5324 40.4705 19.1268C39.8364 18.721 38.9725 18.8917 38.5569 19.5112C38.1309 20.1412 38.3058 20.9738 38.9508 21.3797Z"
        fill="white"
    />
    <path
        d="M39.1584 29.7931C37.6387 29.7078 36.3266 30.8503 36.2504 32.3344C36.163 33.8186 37.3328 35.0998 38.8524 35.1746H39.0052C40.5249 35.1746 41.7604 33.968 41.7604 32.4732C41.7712 31.053 40.6232 29.8679 39.1584 29.7931Z"
        fill="white"
    />
    <path
        d="M29.2422 29.6971C28.1925 29.6971 27.2412 29.1205 26.7712 28.2128C26.0823 26.8888 26.6289 25.2659 27.9958 24.5826C29.3514 23.91 31.013 24.4438 31.7019 25.7785C31.7767 25.9247 31.8372 26.0757 31.8838 26.2295C31.9134 26.328 31.9373 26.4275 31.9551 26.528C31.983 26.6828 31.9969 26.8393 31.9969 26.9958C31.9969 28.4905 30.7619 29.6971 29.2422 29.6971Z"
        fill="white"
    />
    <path
        d="M48.4074 24.7641C48.9649 24.4866 49.1838 23.814 48.8996 23.2693C48.615 22.7249 47.9265 22.5112 47.3686 22.7889C46.8112 23.0664 46.5927 23.7285 46.866 24.273C47.161 24.8177 47.8391 25.0418 48.4074 24.7641Z"
        fill="white"
    />
    <path
        d="M40.6889 27.7434C40.2842 26.9638 40.6123 26.0135 41.4105 25.6184C42.2086 25.2342 43.1817 25.5438 43.586 26.3232C43.9907 27.1027 43.6626 28.053 42.8644 28.4481C42.0663 28.843 41.0932 28.5227 40.6889 27.7434Z"
        fill="white"
    />
    <path
        d="M34.0854 21.6998C34.0414 22.5753 33.2764 23.2479 32.3799 23.1946C31.4834 23.1519 30.8054 22.4045 30.8493 21.5288C30.8929 20.6533 31.6583 19.9807 32.5548 20.034C33.4513 20.0767 34.1398 20.8243 34.0854 21.6998Z"
        fill="white"
    />
    <path
        d="M23.59 39.3814C24.3881 38.9863 24.7162 38.036 24.3115 37.2567C23.9072 36.4771 22.9341 36.1568 22.136 36.5519C21.3379 36.9468 21.0097 37.8971 21.4145 38.6766C21.8187 39.4562 22.7918 39.7763 23.59 39.3814Z"
        fill="white"
    />
    <path
        d="M34.2273 29.2381C32.9482 28.4265 32.5984 26.7609 33.4291 25.5117C33.9431 24.7536 34.8069 24.2944 35.7361 24.2944C36.2718 24.2944 36.7966 24.444 37.2449 24.7322C38.5239 25.5436 38.8738 27.2094 38.043 28.4586C37.2122 29.7078 35.5067 30.0496 34.2273 29.2381Z"
        fill="white"
    />
    <path
        d="M38.2288 36.787C37.5399 35.4523 35.8784 34.9185 34.5228 35.5911C33.1558 36.2637 32.6092 37.8868 33.2981 39.2108C33.987 40.5453 35.6486 41.0793 37.0042 40.4067C38.3602 39.7446 38.9177 38.1431 38.2397 36.8084L38.2388 36.7989L38.2362 36.7945L38.2288 36.787Z"
        fill="white"
    />
    <path
        d="M40.8086 37.0539C41.2899 36.3171 42.2956 36.1144 43.0498 36.5948C43.8044 37.0752 44.012 38.0576 43.5203 38.7836C43.0389 39.5204 42.0332 39.7231 41.279 39.2427C40.5244 38.7728 40.3168 37.7906 40.8086 37.0539Z"
        fill="white"
    />
    <path
        d="M48.3417 32.548C48.3857 31.8006 47.806 31.1707 47.0409 31.128C46.2754 31.0852 45.6305 31.6511 45.5865 32.3986C45.543 33.146 46.1223 33.776 46.8877 33.8186C47.6419 33.8613 48.2982 33.2849 48.3417 32.548Z"
        fill="white"
    />
    <path
        d="M51.217 32.4094C51.2388 31.929 51.6652 31.5553 52.1574 31.5872C52.6492 31.6193 53.0209 32.025 52.9991 32.5056C52.9665 32.986 52.5508 33.3597 52.0591 33.3277C51.5669 33.3063 51.1952 32.8898 51.217 32.4094Z"
        fill="white"
    />
    <path
        d="M48.5606 40.2357C48.0358 39.9046 47.336 40.0435 46.9861 40.556C46.6471 41.0686 46.7894 41.7519 47.3142 42.0934C47.8386 42.4245 48.5384 42.2856 48.8883 41.7733C49.2382 41.2608 49.085 40.5667 48.5606 40.2357Z"
        fill="white"
    />
    <path
        d="M21.9824 48.6174C22.2561 48.2223 22.8027 48.1049 23.2179 48.3719C23.6335 48.6388 23.7536 49.1833 23.4694 49.5784C23.1961 49.9733 22.6495 50.091 22.2339 49.824C21.8296 49.557 21.7091 49.0232 21.9824 48.6174Z"
        fill="white"
    />
    <path
        d="M41.9353 48.2864C41.4979 48.4998 41.323 49.0337 41.5415 49.4608C41.642 49.6572 41.8117 49.7994 42.0084 49.875L42.0532 49.891C42.0815 49.9002 42.1107 49.9082 42.1398 49.9147C42.2782 49.9456 42.4245 49.9454 42.5655 49.9103C42.6264 49.8952 42.6864 49.8736 42.7443 49.8452C43.1817 49.6316 43.3566 49.1085 43.1377 48.6813C42.9193 48.2435 42.3836 48.062 41.9353 48.2864Z"
        fill="white"
    />
    <path
        d="M30.7723 35.7514C32.0513 36.5735 32.4012 38.2391 31.5704 39.4885C31.0565 40.2571 30.1931 40.7163 29.2526 40.7056C28.9684 40.7056 28.6873 40.6636 28.4188 40.581C28.1812 40.5079 27.954 40.4031 27.7438 40.2678C26.4648 39.4457 26.104 37.7801 26.9457 36.5309C27.7878 35.2815 29.4933 34.9399 30.7723 35.7514Z"
        fill="white"
    />
    <path
        d="M26.0496 43.6203C25.4156 43.2145 24.5517 43.3853 24.1366 44.0048C23.721 44.624 23.8959 45.4674 24.53 45.8732C24.6797 45.9688 24.842 46.0324 25.0078 46.0658C25.2598 46.1163 25.5209 46.0967 25.7598 46.0133C26.0314 45.9184 26.2746 45.7407 26.4435 45.4888C26.8695 44.8696 26.6946 44.026 26.0496 43.6203Z"
        fill="white"
    />
    <path
        d="M31.2863 49.824C31.3302 49.2152 31.8659 48.7455 32.4891 48.7775C33.1123 48.8203 33.5932 49.3434 33.5606 49.9628C33.5323 50.3571 33.2973 50.6886 32.9661 50.8646C32.8425 50.9301 32.7054 50.974 32.5605 50.9915C32.4943 50.9995 32.4265 51.002 32.3577 50.9984C31.7345 50.9558 31.2427 50.4325 31.2863 49.824Z"
        fill="white"
    />
    <path
        d="M32.5004 41.8052C31.6039 41.7519 30.8385 42.4245 30.7949 43.3C30.7401 44.1757 31.429 44.9231 32.3255 44.9658C33.222 45.0084 33.9875 44.3465 34.031 43.471C34.0858 42.606 33.3969 41.8479 32.5004 41.8052Z"
        fill="white"
    />
    <path
        d="M38.5356 45.329C38.1857 44.6669 38.459 43.8554 39.1366 43.5139C39.8255 43.1721 40.6563 43.4498 41.0062 44.1117C41.3452 44.7738 41.0719 45.5852 40.3939 45.9161C39.7163 46.2578 38.8851 45.9909 38.5356 45.329Z"
        fill="white"
    />
    <defs>
        <linearGradient
            id="paint0_linear-ada"
            x1="13"
            y1="1.4428e-06"
            x2="95"
            y2="137.5"
            gradientUnits="userSpaceOnUse"
        >
            <stop offset="0" stop-color="#0033AD"/>
            <stop offset="0.454252" stop-color="#496EC5"/>
            <stop offset="1" stop-color="white"/>
        </linearGradient>
    </defs>
</svg>
