<svg width="65" height="65" viewBox="0 0 65 65" fill="none" xmlns="http://www.w3.org/2000/svg">
    <path d="M64.0277 40.3631C64.028 40.3631 64.0282 40.3633 64.0281 40.3636C59.6866 57.7741 42.0495 68.3688 24.6348 64.028C7.22808 59.6873 -3.36913 42.0521 0.973154 24.6423C5.31239 7.22951 22.9487 -3.36747 40.3584 0.973286C57.7721 5.314 68.3683 22.951 64.0273 40.3626C64.0273 40.3628 64.0275 40.3631 64.0277 40.3631Z" fill="url(#paint0_linear-btc)"/>
    <path fill-rule="evenodd" clip-rule="evenodd" d="M42.2904 28.7247C42.7287 25.791 40.4947 24.2139 37.4401 23.1619L38.431 19.1878L36.011 18.5849L35.0463 22.4543C34.411 22.2958 33.7577 22.1463 33.1086 21.9982L34.0802 18.1033L31.6623 17.5005L30.6707 21.4732C30.1443 21.3533 29.6275 21.2348 29.1259 21.1101L29.1286 21.0977L25.7922 20.2647L25.1486 22.8484C25.1486 22.8484 26.9436 23.2597 26.9057 23.2852C27.8856 23.5298 28.0633 24.1781 28.033 24.6921L26.9043 29.2194C26.9719 29.2366 27.0594 29.2614 27.1558 29.3L26.9009 29.2366L25.3181 35.5787C25.1982 35.8763 24.8943 36.3228 24.2094 36.1533C24.2335 36.1884 22.4509 35.7144 22.4509 35.7144L21.2499 38.4841L24.3989 39.2689C24.7544 39.3579 25.1056 39.4495 25.4529 39.5402C25.6778 39.5988 25.9011 39.6571 26.1229 39.714L25.1217 43.7342L27.5383 44.337L28.5305 40.3602C29.1899 40.5394 29.8308 40.7047 30.4578 40.8604L29.4697 44.8186L31.889 45.4215L32.8902 41.4095C37.0156 42.1902 40.1185 41.8753 41.4229 38.1451C42.4751 35.1412 41.3712 33.4084 39.2007 32.2778C40.7814 31.9119 41.9721 30.8722 42.2897 28.7247H42.2904ZM36.762 36.4756C36.0752 39.2329 31.7583 38.092 29.7849 37.5705C29.6082 37.5238 29.4503 37.4821 29.3154 37.4485L30.6439 32.1228C30.8087 32.164 31.0101 32.2091 31.2382 32.2603L31.2382 32.2603C33.2798 32.7185 37.4637 33.6573 36.7627 36.4756H36.762ZM31.6487 29.7906C33.2954 30.2299 36.8846 31.1875 37.5098 28.6826C38.1491 26.1201 34.6589 25.3477 32.9544 24.9705C32.7628 24.9281 32.5937 24.8907 32.4556 24.8563L31.2512 29.6866C31.3651 29.715 31.4989 29.7507 31.6487 29.7906Z" fill="white"/>
    <defs>
        <linearGradient id="paint0_linear-btc" x1="36.1673" y1="91.2104" x2="-6.73373" y2="-38.1029" gradientUnits="userSpaceOnUse">
            <stop offset="0" stop-color="#FFC300"/>
            <stop offset="1" stop-color="#FF541E"/>
        </linearGradient>
    </defs>
</svg>
