<svg width="65" height="65" viewBox="0 0 65 65" fill="none" xmlns="http://www.w3.org/2000/svg">
    <circle cx="32.5" cy="32.5" r="32.5" fill="url(#paint0_linear-dai)"/>
    <path fill-rule="evenodd" clip-rule="evenodd" d="M22.5778 20.1008H32.5354C38.5923 20.1008 43.1834 23.2607 44.8915 27.8588H47.9933V30.6379H45.5447C45.5926 31.0771 45.6171 31.5245 45.6171 31.9791V32.0473C45.6171 32.5591 45.5861 33.0622 45.5256 33.5549H47.9933V36.334H44.8324C43.0794 40.8681 38.5238 43.9979 32.5354 43.9979H22.5778V36.334H19.1177V33.5549H22.5778V30.6379H19.1177V27.8588H22.5778V20.1008ZM25.3616 36.334V41.5048H32.5354C36.9623 41.5048 40.2513 39.4339 41.7823 36.334H25.3616ZM42.6351 33.5549H25.3616V30.6379H42.6395C42.7036 31.097 42.7363 31.5675 42.7363 32.0473V32.1156C42.7363 32.6064 42.7021 33.087 42.6351 33.5549ZM32.5354 22.5898C36.9827 22.5898 40.2815 24.7154 41.8033 27.8588H25.3616V22.5898H32.5354Z" fill="white"/>
    <defs>
        <linearGradient id="paint0_linear-dai" x1="13" y1="6.03284e-07" x2="46.4286" y2="65" gradientUnits="userSpaceOnUse">
            <stop offset="0" stop-color="#F2AA0D"/>
            <stop offset="1" stop-color="#FBCD37"/>
        </linearGradient>
    </defs>
</svg>
