<svg width="65" height="65" viewBox="0 0 65 65" fill="none" xmlns="http://www.w3.org/2000/svg">
    <path d="M64.0277 40.363C64.028 40.363 64.0282 40.3633 64.0281 40.3635C59.6866 57.774 42.0495 68.3687 24.6348 64.028C7.22808 59.6872 -3.36913 42.052 0.973154 24.6422C5.31239 7.22944 22.9487 -3.36753 40.3584 0.973225C57.7721 5.31394 68.3683 22.9509 64.0273 40.3625C64.0273 40.3628 64.0275 40.363 64.0277 40.363Z" fill="url(#paint0_linear-eth)"/>
    <path fill-rule="evenodd" clip-rule="evenodd" d="M22.4302 31.3629L32.9847 25.8149L43.453 31.3974L32.9387 15.9997L22.4302 31.3629ZM22.8333 32.9654L32.9967 27.5495L43.0278 32.9252L33.0025 38.3469L22.8333 32.9654ZM22.4302 34.516C26.1343 36.4802 29.9995 38.5363 32.9847 40.1271L43.4529 34.516C39.6625 40.1386 36.5048 44.8194 32.9847 49.9998L30.8262 46.8359L30.8246 46.8335C27.9251 42.5838 24.9352 38.2014 22.4302 34.516Z" fill="white"/>
    <path fill-rule="evenodd" clip-rule="evenodd" d="M32.9431 15.9997L32.9825 25.8149L43.4555 31.3974L32.9431 15.9997ZM32.9929 27.5495L43.0913 32.9252L32.9979 38.3469L32.9929 27.5495ZM32.9834 40.1271L43.4564 34.516C40.2081 40.1386 32.9834 49.9998 32.9834 49.9998V40.1271Z" fill="#B9B9B9"/>
    <defs>
        <linearGradient id="paint0_linear-eth" x1="-1.08587e-06" y1="-48.7493" x2="39.7371" y2="92.4633" gradientUnits="userSpaceOnUse">
            <stop offset="0" stop-color="#353539"/>
            <stop offset="1" stop-color="#717979"/>
        </linearGradient>
    </defs>
</svg>
