<svg width="65" height="65" viewBox="0 0 65 65" fill="none" xmlns="http://www.w3.org/2000/svg">
    <circle cx="32.5" cy="32.5" r="32.5" fill="url(#paint0_linear-eur)"/>
    <path d="M40.6951 41.7542C40.439 41.8994 40.1756 42.0312 39.9059 42.1493C38.9119 42.6349 37.7038 42.8776 36.2817 42.8776C33.531 42.8776 31.4519 42.1103 29.5559 40.0833C28.8358 39.3182 28.2349 38.4484 27.7736 37.5032H35.2222V33.8977H26.7805C26.7397 33.4807 26.716 33.0551 26.716 32.6181C26.7161 32.1173 26.7449 31.617 26.8023 31.1195H35.2222V27.514H27.8429C28.2927 26.6122 28.8675 25.7788 29.5502 25.0386C31.4348 22.9631 33.5073 22.171 36.2589 22.171C37.3698 22.1736 38.4712 22.3767 39.5104 22.7708L41.1276 19.2091C39.499 18.5141 38.247 18.1618 36.5369 18.1618C32.132 18.1618 28.7876 19.6337 26.0132 23.0688C24.9326 24.3952 24.0829 25.8952 23.4997 27.5055H20.0461V31.111H22.7114C22.664 31.6146 22.6375 32.1259 22.6375 32.6457C22.6375 33.0675 22.6555 33.4807 22.6858 33.8891H20.0461V37.4946H23.3944C24.0558 39.4768 25.1507 41.2715 26.679 42.8786C29.3842 45.6825 32.4052 46.8383 36.2314 46.8383C38.0587 46.8392 39.8678 46.4751 41.5535 45.7672L40.6951 41.7542Z" fill="white"/>
    <defs>
        <linearGradient id="paint0_linear-eur" x1="6" y1="2.67671e-06" x2="65" y2="82.2059" gradientUnits="userSpaceOnUse">
            <stop offset="0" stop-color="#2453A8"/>
            <stop offset="1" stop-color="#2E67D1"/>
        </linearGradient>
    </defs>
</svg>
