<svg width="65" height="65" viewBox="0 0 65 65" fill="none" xmlns="http://www.w3.org/2000/svg">
    <path d="M64.0277 40.363C64.028 40.363 64.0282 40.3633 64.0281 40.3635C59.6866 57.774 42.0495 68.3687 24.6348 64.028C7.22808 59.6872 -3.36913 42.052 0.973154 24.6422C5.31239 7.22944 22.9487 -3.36753 40.3584 0.973225C57.7721 5.31394 68.3683 22.9509 64.0273 40.3625C64.0273 40.3628 64.0275 40.363 64.0277 40.363Z" fill="url(#paint0_linear-ltc)"/>
    <path d="M31.4602 39.8887L33.1716 33.5298L37.2232 32.0691L38.231 28.332L38.1966 28.2393L34.2083 29.6771L37.0819 18.9997H28.9324L25.1744 32.9339L22.0368 34.065L21 37.9178L24.1352 36.7876L21.9204 44.9997H43.6095L45 39.8887H31.4602Z" fill="white"/>
    <defs>
        <linearGradient id="paint0_linear-ltc" x1="36.1673" y1="91.2103" x2="-6.73373" y2="-38.103" gradientUnits="userSpaceOnUse">
            <stop offset="0" stop-color="#4EB1FC"/>
            <stop offset="1" stop-color="#476CFB"/>
        </linearGradient>
    </defs>
</svg>
