<svg width="65" height="65" viewBox="0 0 65 65" fill="none" xmlns="http://www.w3.org/2000/svg">
    <circle cx="32.5" cy="32.5" r="32.5" fill="url(#paint0_linear-pax)"/>
    <path d="M24.45 20.2113C25.1002 19.47 25.6928 18.8373 26.2589 18.3075C16.6906 17.9969 19.4759 24.9697 16.358 32.056C12.7675 40.2171 16.7804 43.3271 22.7601 44.2962C21.9313 43.31 21.2546 42.1818 20.7395 40.9641C16.8626 36.0436 18.423 27.0793 24.45 20.2113Z" fill="white"/>
    <path d="M47.4737 28.9032C46.5834 31.4311 44.9493 34.2677 42.6395 37.0595C40.839 39.2348 38.8373 40.948 36.7713 42.1886C34.383 43.7484 31.4201 44.6689 28.1075 44.6689C26.2531 44.6689 24.43 44.565 22.76 44.2944C23.7467 45.4674 24.9461 46.4412 26.341 47.1205C34.9916 51.3378 35.5379 43.5036 44.6904 39.5283C49.8299 37.2958 49.8488 32.9318 47.4737 28.9032Z" fill="white"/>
    <path d="M36.7682 20.7511C38.0441 20.9855 39.2548 21.4086 40.3388 22.026C43.2441 23.683 45.8904 26.2185 47.4735 28.9036C49.0319 24.4786 48.3061 20.9998 44.8961 20.37C41.1488 19.6792 38.2189 19.4572 35.4034 17.4753C31.9358 15.0341 28.8963 15.8392 26.2585 18.3071C26.4447 18.3128 26.6347 18.3214 26.8303 18.3328C30.4898 18.5501 33.982 19.2685 36.7682 20.7511Z" fill="white"/>
    <path d="M24.4498 20.2105C18.4228 27.0785 16.8625 36.0428 20.7393 40.9633C18.9984 36.8442 19.1194 31.7065 21.5729 27.6045C24.8392 22.1428 31.3907 19.7617 36.7684 20.7517C33.9822 19.2681 30.49 18.5506 26.8315 18.3324C26.6349 18.321 26.4449 18.3134 26.2587 18.3067C25.6926 18.8365 25.1 19.4692 24.4498 20.2105Z" fill="white"/>
    <path d="M40.3385 22.0267C39.2544 21.4083 38.0437 20.9862 36.7678 20.7518C40.4367 22.7041 42.878 25.9848 42.8506 31.2101C42.826 35.7437 40.5029 39.7504 36.7707 42.1897C38.8367 40.9491 40.8394 39.2359 42.6389 37.0606C44.9497 34.2687 46.5828 31.4321 47.4731 28.9043C45.89 26.2192 43.2437 23.6827 40.3385 22.0267Z" fill="white"/>
    <path d="M36.1644 39.7048C32.0219 42.388 26.4987 41.1912 23.8269 37.0311C21.1551 32.871 22.4763 27.5142 26.4883 24.6385C30.9748 21.4236 36.7286 22.6919 38.8258 27.3122C40.871 31.8172 40.3058 37.0216 36.1644 39.7048ZM36.7683 20.7509C31.3906 19.7619 24.8391 22.1421 21.5728 27.6037C19.1193 31.7057 18.9974 36.8444 20.7392 40.9625C21.2543 42.1803 21.93 43.3094 22.7599 44.2956C24.4299 44.5662 26.253 44.6691 28.1063 44.6691C31.4199 44.6691 34.3828 43.7486 36.7702 42.1889C40.5034 39.7505 42.8265 35.7429 42.8501 31.2093C42.8784 25.9839 40.4363 22.7033 36.7683 20.7509Z" fill="white"/>
    <defs>
        <linearGradient id="paint0_linear-pax" x1="6" y1="9.22038e-07" x2="56" y2="74" gradientUnits="userSpaceOnUse">
            <stop offset="0" stop-color="#51B849"/>
            <stop offset="1" stop-color="#96D491"/>
        </linearGradient>
    </defs>
</svg>
