<svg width="65" height="65" viewBox="0 0 65 65" fill="none" xmlns="http://www.w3.org/2000/svg">
    <circle cx="32.5" cy="32.5" r="32.5" fill="url(#paint0_linear-tusd)"/>
    <path d="M44.6002 47.0714H19.4002C18.0802 47.0714 17.0002 45.9914 17.0002 44.6714V19.4714C17.0002 18.1514 18.0802 17.0714 19.4002 17.0714H44.6002C45.9202 17.0714 47.0002 18.1514 47.0002 19.4714V44.6714C47.0002 45.9914 45.9202 47.0714 44.6002 47.0714Z" fill="white"/>
    <path d="M22.8541 44.0514C22.7751 44.0514 22.7111 43.9794 22.7111 43.9004V39.8694C22.7111 39.7904 22.6471 39.7184 22.5681 39.7184H21.1451C21.0651 39.7184 20.9941 39.6544 20.9941 39.5754V38.7964C20.9941 38.7174 21.0661 38.6454 21.1451 38.6454H25.5251C25.6041 38.6454 25.6761 38.7164 25.6761 38.7964V39.5754C25.6761 39.6544 25.6041 39.7184 25.5251 39.7184H24.1101C24.0311 39.7184 23.9591 39.7894 23.9591 39.8694V43.9004C23.9591 43.9794 23.8951 44.0514 23.8161 44.0514H22.8541Z" fill="#002868"/>
    <path d="M30.0482 38.7964C30.0482 38.7174 30.1122 38.6454 30.1912 38.6454H31.1452C31.2242 38.6454 31.2962 38.7164 31.2962 38.7964V41.5474C31.2962 43.1774 30.3742 44.1234 28.9112 44.1234C27.4562 44.1234 26.5422 43.1774 26.5422 41.5474V38.7964C26.5422 38.7174 26.6062 38.6454 26.6852 38.6454H27.6392C27.7182 38.6454 27.7902 38.7164 27.7902 38.7964V41.5864C27.7902 42.3894 28.2032 42.9614 28.9192 42.9614C29.6352 42.9614 30.0482 42.3894 30.0482 41.5864V38.7964Z" fill="#002868"/>
    <path d="M35.6772 40.4104C35.5502 40.4104 35.5102 40.3624 35.4622 40.2674C35.2952 39.8774 34.9292 39.6314 34.3732 39.6314C33.8722 39.6314 33.4512 39.8064 33.4512 40.1404C33.4512 40.5064 33.8412 40.6574 34.6992 40.7604C36.0032 40.9114 36.7502 41.3094 36.7502 42.3424C36.7502 43.5034 35.7322 44.1154 34.4292 44.1154C33.3002 44.1154 32.3302 43.5664 32.1792 42.4144C32.1632 42.3034 32.2192 42.2634 32.3302 42.2634H33.2052C33.3162 42.2634 33.3802 42.3114 33.4122 42.3984C33.5312 42.7804 33.9372 43.0744 34.5252 43.0744C35.0422 43.0744 35.4952 42.8834 35.4952 42.4784C35.4952 41.9934 35.0182 41.9064 34.0642 41.7864C32.9672 41.6434 32.2042 41.3254 32.2042 40.3154C32.2042 39.3054 33.0712 38.5824 34.4302 38.5824C35.6542 38.5824 36.5052 39.2424 36.6802 40.2284C36.7042 40.3394 36.6722 40.4114 36.5532 40.4114H35.6772V40.4104Z" fill="#002868"/>
    <path d="M37.8312 44.0514C37.7522 44.0514 37.6882 43.9794 37.6882 43.9004V38.7964C37.6882 38.7174 37.7522 38.6454 37.8312 38.6454H39.9932C41.5992 38.6454 42.8472 39.7504 42.8472 41.3644C42.8472 42.9544 41.6152 44.0514 39.9932 44.0514H37.8312ZM39.9932 42.9774C40.8602 42.9774 41.5352 42.2934 41.5352 41.3474C41.5352 40.4014 40.8592 39.7174 39.9852 39.7174H39.0872C39.0082 39.7174 38.9442 39.7884 38.9442 39.8684V42.8334C38.9442 42.9124 39.0082 42.9764 39.0872 42.9764H39.9932V42.9774Z" fill="#002868"/>
    <path d="M46.1999 35.6714H17.7999C17.5799 35.6714 17.3999 35.4914 17.3999 35.2714V19.4714C17.3999 18.3714 18.2999 17.4714 19.3999 17.4714H44.5999C45.6999 17.4714 46.5999 18.3714 46.5999 19.4714V35.2714C46.5999 35.4914 46.4199 35.6714 46.1999 35.6714Z" fill="url(#paint1_linear-tusd)"/>
    <path d="M33.473 32.4274H30.873C30.708 32.4274 30.573 32.2924 30.573 32.1274V21.1274C30.573 20.9624 30.708 20.8274 30.873 20.8274H33.473C33.638 20.8274 33.773 20.9624 33.773 21.1274V32.1274C33.773 32.2924 33.638 32.4274 33.473 32.4274Z" fill="white"/>
    <path d="M37.9001 24.0274H26.1C25.935 24.0274 25.8 23.8924 25.8 23.7274V21.1274C25.8 20.9624 25.935 20.8274 26.1 20.8274H37.9001C38.0651 20.8274 38.2001 20.9624 38.2001 21.1274V23.7274C38.2001 23.8924 38.0651 24.0274 37.9001 24.0274Z" fill="white"/>
    <defs>
        <linearGradient id="paint0_linear-tusd" x1="6" y1="6" x2="58" y2="71" gradientUnits="userSpaceOnUse">
            <stop offset="0" stop-color="#0045B5"/>
            <stop offset="0.776735" stop-color="#0159E4"/>
        </linearGradient>
        <linearGradient id="paint1_linear-tusd" x1="12.0715" y1="17.6428" x2="46.4286" y2="46.4285" gradientUnits="userSpaceOnUse">
            <stop offset="0" stop-color="#0249BC"/>
            <stop offset="1" stop-color="#0255D8"/>
        </linearGradient>
    </defs>
</svg>
