<svg width="65" height="65" viewBox="0 0 65 65" fill="none" xmlns="http://www.w3.org/2000/svg">
    <circle cx="32.5" cy="32.5" r="32.5" fill="url(#paint0_linear-usdc)"/>
    <path d="M39.1226 35.4278C39.1226 32.0062 35.8715 30.1639 32.4456 30.1639C29.0198 30.1639 29.212 27.9179 29.212 27.9179C29.212 27.1985 29.4742 25.5667 32.4456 25.5667C35.4171 25.5667 35.5394 28.2513 35.5394 28.2513H38.4759C38.4759 28.2513 38.8429 23.8121 34.0362 23.005V19.8817H30.8551V23.005C25.9784 23.777 26.0134 28.0232 26.0134 28.0232C26.0134 31.743 29.212 33.2169 32.4456 33.2169C35.6793 33.2169 35.7666 35.6032 35.7666 35.6032C35.7666 35.6032 36.1337 38.4633 32.4456 38.4633C28.7576 38.4633 28.845 35.2523 28.845 35.2523C28.845 35.2523 26.5552 35.2523 25.489 35.2523C25.489 38.6914 27.8312 40.5338 30.8551 41.0251V44.0606H34.0362V41.0426C37.0776 40.5162 39.1226 38.3931 39.1226 35.4278Z" fill="white"/>
    <path d="M17.5717 31.9899C17.5717 25.2872 21.9764 19.6022 28.0417 17.7247V14.3383C20.1761 16.321 14.3381 23.4624 14.3381 31.9724C14.3381 40.4824 20.1761 47.6413 28.0591 49.624V46.2551C21.9764 44.3601 17.5717 38.6926 17.5717 31.9899Z" fill="white"/>
    <path d="M36.8491 14.3383V17.7072C42.9143 19.5846 47.319 25.2697 47.319 31.9724C47.319 38.6751 42.9143 44.3601 36.8491 46.2376V49.6065C44.7147 47.6237 50.5526 40.4824 50.5526 31.9724C50.5526 23.4624 44.7321 16.321 36.8491 14.3383Z" fill="white"/>
    <defs>
        <linearGradient id="paint0_linear-usdc" x1="23.2143" y1="-7.90674e-07" x2="48.75" y2="65" gradientUnits="userSpaceOnUse">
            <stop offset="0" stop-color="#2D77C7"/>
            <stop offset="1" stop-color="#5996D9"/>
        </linearGradient>
    </defs>
</svg>
