<svg width="65" height="65" viewBox="0 0 65 65" fill="none" xmlns="http://www.w3.org/2000/svg">
    <circle cx="32.5" cy="32.5" r="32.5" fill="url(#paint0_linear-usdt)"/>
    <path d="M35.5531 29.0042V25.4655H43.6537V20.0735H21.5952V25.4655H29.6978V29.0013C23.1129 29.3037 18.1619 30.6058 18.1619 32.1664C18.1619 33.7271 23.1149 35.0292 29.6978 35.3335V46.6685H35.556V35.3326C42.1282 35.0302 47.0695 33.728 47.0695 32.1684C47.0695 30.6097 42.1282 29.3085 35.556 29.0052L35.5531 29.0042ZM35.556 34.3728V34.3698C35.3902 34.3796 34.5416 34.4313 32.6503 34.4313C31.1385 34.4313 30.0753 34.3884 29.7007 34.3689V34.3737C23.8835 34.1162 19.5411 33.1038 19.5411 31.8933C19.5411 30.6829 23.8835 29.6724 29.7007 29.4139V33.3652C30.0811 33.3915 31.1716 33.4559 32.6757 33.4559C34.4821 33.4559 35.3902 33.3808 35.557 33.3652V29.4149C41.3625 29.6724 45.6952 30.6858 45.6952 31.8924C45.6952 33.0989 41.3605 34.1123 35.557 34.3698" fill="white"/>
    <defs>
        <linearGradient id="paint0_linear-usdt" x1="23.2143" y1="-1.33513e-06" x2="53.5294" y2="58.3088" gradientUnits="userSpaceOnUse">
            <stop offset="0" stop-color="#00A478"/>
            <stop offset="1" stop-color="#00C28E"/>
        </linearGradient>
    </defs>
</svg>
