<svg fill="none" xmlns="http://www.w3.org/2000/svg" viewBox="0 0 114 105" class="reviews__quotes">
                        <path d="M114 57.2c0-4.4183-3.582-8-8-8H93.6001c-2.8498 0-5.16-2.3102-5.16-5.16 0-10.8 8.76-19.68 19.6799-19.68V0C83.8801 0 64.0801 19.8 64.0801 44.04v52.5999c0 4.4181 3.5817 8.0001 8 8.0001H106c4.418 0 8-3.582 8-8.0001V57.2zM41.92 104.64c4.4182 0 8-3.582 8-8.0001V57.2c0-4.4183-3.5818-8-8-8h-12.4c-2.8498 0-5.16-2.3102-5.16-5.16 0-10.8 8.76-19.68 19.68-19.68V0C19.8 0 0 19.8 0 44.04v52.5999c0 4.4181 3.58172 8.0001 8 8.0001h33.92z" fill="#007AFF"></path>
                      </svg>