<svg fill="none" xmlns="http://www.w3.org/2000/svg" viewBox="0 0 20 19" color="#FFD600" class="stars__icon">
                                    <path d="M9.0394.946226c.29829-.9235281 1.6049-.9235288 1.9032-.000001l1.5085 4.670425c.1336.41363.5191.69359.9538.69264l4.9114-.01072c.9713-.00212 1.3751 1.24207.5876 1.81071l-3.9771 2.87202c-.3529.2548-.5004.7086-.3648 1.1222l1.5275 4.6596c.3024.9225-.7547 1.6915-1.5392 1.1197L10.58 14.9892c-.351-.2558-.82699-.2558-1.17798 0L5.4317 17.8828c-.78456.5718-1.84164-.1972-1.53921-1.1197l1.52754-4.6596c.1356-.4136-.01192-.8674-.3648-1.1222L1.07808 8.10929c-.787458-.56865-.383689-1.81284.58762-1.81072l4.91143.01072c.43468.00095.82018-.27901.95378-.69264L9.0394.946226z" fill="currentColor"></path>
                                  </svg>