<svg fill="none" xmlns="http://www.w3.org/2000/svg" viewBox="0 0 33 26" class="icon_twitter social__icon icon sprite-social">
                                    <path d="M32.3008 3.078c-1.19.522-2.458.868-3.78 1.036 1.36-.812 2.398-2.088 2.886-3.626-1.268.756-2.668 1.29-4.16 1.588C26.0428.794 24.3268 0 22.4548 0c-3.632 0-6.556 2.948-6.556 6.562 0 .52.044 1.02.152 1.496-5.454-.266-10.28002-2.88-13.52202-6.862-.566.982-.898 2.106-.898 3.316 0 2.272 1.17 4.286 2.914 5.452-1.054-.02-2.088-.326-2.964-.808v.072c0 3.188 2.274 5.836 5.256 6.446-.534.146-1.116.216-1.72.216-.42 0-.844-.024-1.242-.112.85 2.598 3.262 4.508 6.13002 4.57-2.23202 1.746-5.06602 2.798-8.13402 2.798-.538 0-1.053999-.024-1.569999-.09C3.20678 24.93 6.65078 26 10.3648 26c12.072 0 18.672-10 18.672-18.668 0-.29-.01-.57-.024-.848 1.302-.924 2.396-2.078 3.288-3.406z" fill="currentColor"></path>
                                  </svg>